<svg width="80" height="80" viewBox="0 0 80 80" fill="none" xmlns="http://www.w3.org/2000/svg">
<path d="M21.1978 55.9179C21.2062 55.9009 21.2148 55.884 21.2233 55.8668C21.2317 55.8838 21.2403 55.9009 21.2488 55.9179C22.3906 58.1955 24.7409 59.614 27.2887 59.614H29.6816C32.2258 59.614 34.5698 58.2138 35.7545 55.9623C39.73 48.4063 42.4467 37.6613 42.4467 32.8437C42.4467 25.9618 36.9039 20.3831 30.0664 20.3831C26.6014 20.3831 23.4705 21.8174 21.2233 24.1265C18.9761 21.8174 15.8453 20.3831 12.3802 20.3831C5.54281 20.3829 0 25.9618 0 32.8437C0 37.6613 2.71672 48.4063 6.69219 55.9623C7.87688 58.2138 10.2209 59.614 12.7652 59.614H15.1578C17.7058 59.614 20.0561 58.1955 21.1978 55.9179Z" fill="#E28086"/>
<path d="M30.0664 20.3829C28.3101 20.3829 26.6399 20.752 25.127 21.4162C29.5048 23.3367 32.5656 27.7301 32.5656 32.8437C32.5656 37.6614 29.8489 48.4064 25.8734 55.9623C25.3206 57.0129 24.5153 57.8779 23.5551 58.5021C24.6439 59.2156 25.9385 59.6142 27.2889 59.6142H29.6817C32.2259 59.6142 34.57 58.214 35.7546 55.9625C39.7301 48.4065 42.4468 37.6615 42.4468 32.8439C42.4467 25.9618 36.9039 20.3829 30.0664 20.3829Z" fill="#DD636E"/>
<path d="M21.8261 49.5028H68.5295V64.9316H21.8261V49.5028Z" fill="#DDDAEC"/>
<path d="M54.3494 49.5028V54.5067C54.3494 57.2581 52.1189 59.4887 49.3673 59.4887H21.8261V64.9316H68.5295V49.5028H54.3494Z" fill="#D0CEE7"/>
<path d="M21.3574 69.03H14.5494C11.9605 69.03 9.86192 66.9314 9.86192 64.3425V50.1903C9.86192 47.6014 11.9605 45.5028 14.5494 45.5028H21.3574V69.03Z" fill="#5E54AC"/>
<path d="M15.6096 45.5028V59.995C15.6096 62.8251 13.3154 65.1194 10.4852 65.1194H9.92712C10.2974 67.3383 12.2252 69.03 14.5493 69.03H21.3573V45.5028H15.6096Z" fill="#524798"/>
<path d="M68.5044 45.5028H75.3125C77.9014 45.5028 80 47.6014 80 50.1903V64.3425C80 66.9314 77.9014 69.03 75.3125 69.03H68.5044V45.5028Z" fill="#5E54AC"/>
<path d="M76.0164 45.5555C76.0677 45.833 76.0958 46.1187 76.0958 46.411V60.5634C76.0958 63.1523 73.9972 65.2509 71.4083 65.2509H68.5046V69.0302H75.3125C77.9013 69.0302 80 66.9316 80 64.3427V50.1904C80 47.8409 78.2713 45.8952 76.0164 45.5555Z" fill="#524798"/>
<path d="M31.5264 27.5653C31.2689 27.5653 31.0099 27.4822 30.7919 27.311L27.7482 24.9199C26.7236 24.1152 25.4107 23.8291 24.1436 24.135L21.6572 24.736C21.018 24.8907 20.3749 24.4975 20.2205 23.8585C20.0661 23.2194 20.4589 22.5761 21.098 22.4217L23.5844 21.8208C25.5633 21.3421 27.6174 21.7896 29.2189 23.0477L32.2627 25.4388C32.7799 25.845 32.8697 26.5933 32.4635 27.1103C32.2285 27.4091 31.8793 27.5652 31.5264 27.5653Z" fill="#78C2A4"/>
<path d="M50.9817 39.0133C51.1639 39.4743 50.8203 39.9717 50.3245 39.9643C47.4838 39.9223 39.4127 39.5429 35.2489 36.6659C30.1414 33.1367 27.6387 27.9056 29.6589 24.982C31.6791 22.0584 37.4572 22.5494 42.5647 26.0787C46.7283 28.9556 49.9377 36.3709 50.9817 39.0133Z" fill="#95D6A4"/>
<path d="M29.8067 24.7871C29.7562 24.8509 29.7055 24.9146 29.6589 24.982C27.6387 27.9055 30.1414 33.1366 35.2489 36.6659C39.4125 39.5429 47.4836 39.9224 50.3245 39.9643C50.6033 39.9684 50.8337 39.8131 50.95 39.5943L29.8067 24.7871Z" fill="#B3E59F"/>
<path d="M28.349 73.5951H24.2014C21.6124 73.5951 19.5139 71.4965 19.5139 68.9076V45.6254C19.5139 43.0365 21.6124 40.9379 24.2014 40.9379H28.349C29.3845 40.9379 30.224 41.7774 30.224 42.8129V71.7201C30.224 72.7557 29.3845 73.5951 28.349 73.5951Z" fill="#5E54AC"/>
<path d="M61.5128 40.9379H65.6605C68.2494 40.9379 70.348 43.0365 70.348 45.6254V65.2508L69.2383 67.0429L70.348 68.9076C70.348 71.4965 68.2494 73.5951 65.6605 73.5951H61.5128C60.4773 73.5951 59.6378 72.7555 59.6378 71.7201V42.8129C59.6378 41.7772 60.4773 40.9379 61.5128 40.9379Z" fill="#5E54AC"/>
<path d="M66.3428 40.9878C66.3753 41.2106 66.3928 41.4384 66.3928 41.6701V64.9523C66.3928 67.5412 64.2942 69.6398 61.7053 69.6398H59.6378V71.7198C59.6378 72.7553 60.4773 73.5948 61.5128 73.5948H65.6605C68.2494 73.5948 70.348 71.4962 70.348 68.9073V45.6253C70.348 43.2683 68.6083 41.3183 66.3428 40.9878Z" fill="#524798"/>
<path d="M30.224 71.7201V42.8129C30.224 41.7774 29.3845 40.9379 28.349 40.9379H26.3203V67.7651C26.3203 68.8005 25.4807 69.6401 24.4453 69.6401H20.2976C20.0476 69.6401 19.8023 69.6201 19.5628 69.5822C19.89 71.8513 21.8415 73.5951 24.2012 73.5951H28.3489C29.3845 73.5951 30.224 72.7557 30.224 71.7201Z" fill="#524798"/>
<path d="M35.654 49.5028H38.035V64.9317H35.654V49.5028Z" fill="#D0CEE7"/>
<path d="M41.2098 49.5028H43.5907V64.9317H41.2098V49.5028Z" fill="#D0CEE7"/>
<path d="M46.7652 49.5028H49.1461V64.9317H46.7652V49.5028Z" fill="#D0CEE7"/>
<path d="M52.3207 49.5028H54.7017V64.9317H52.3207V49.5028Z" fill="#D0CEE7"/>
<path d="M46.7652 59.4885H49.1461V64.9313H46.7652V59.4885Z" fill="#BEB9DD"/>
<path d="M7.75345 6.43992C7.34282 6.29632 6.91892 6.61492 6.94267 7.04929C7.0786 9.53851 7.69313 16.6013 10.3608 20.1512C13.6333 24.5059 18.3069 26.5174 20.7995 24.6441C23.2922 22.7709 22.66 17.7223 19.3875 13.3676C16.7199 9.81773 10.1066 7.26288 7.75345 6.43992Z" fill="#95D6A4"/>
<path d="M20.9653 24.508C20.9111 24.5545 20.857 24.6011 20.7997 24.6444C18.307 26.5176 13.6334 24.5061 10.3609 20.1514C7.69309 16.6016 7.07872 9.53859 6.94278 7.04953C6.9295 6.80531 7.05762 6.59781 7.24528 6.48828L20.9653 24.508Z" fill="#B3E59F"/>
<path d="M16.9004 20.3948C17.1598 20.3948 17.4165 20.3101 17.6284 20.1465C17.9649 19.8865 18.1373 19.4667 18.0804 19.0453L17.0056 11.0759C16.1888 10.4612 15.2902 9.89358 14.3743 9.37952L15.4452 17.32L7.92603 14.2333C8.15978 15.2323 8.44712 16.2295 8.79915 17.1655L16.4485 20.3056C16.5943 20.3656 16.7477 20.3948 16.9004 20.3948Z" fill="#78C2A4"/>
<path d="M15.4351 17.2448L15.4452 17.3202L7.92603 14.2333C8.15978 15.2323 8.44712 16.2295 8.79915 17.1655L16.4485 20.3056C16.5945 20.3655 16.7479 20.3948 16.9006 20.3948C17.1599 20.3948 17.4166 20.3102 17.6285 20.1466C17.632 20.1439 17.6348 20.1408 17.6382 20.1381L15.4351 17.2448Z" fill="#95D6A4"/>
<path d="M39.7267 38.616L35.0961 28.4954L45.9406 29.5343C45.2188 28.5582 44.4414 27.6602 43.6189 26.9201L33.2683 25.9285C32.8448 25.888 32.4316 26.0765 32.1848 26.4232C31.9381 26.7699 31.8952 27.2219 32.0722 27.6088L36.5686 37.4366C37.5267 37.9141 38.603 38.3012 39.7267 38.616Z" fill="#78C2A4"/>
<path d="M42.2468 33.5221L48.766 34.1467C48.3357 33.3184 47.859 32.4617 47.341 31.6184L40.4213 30.9556C39.9977 30.9148 39.5851 31.1034 39.3382 31.4498C39.0915 31.7962 39.0482 32.2479 39.2248 32.6348L42.2176 39.1937C43.1709 39.3735 44.1204 39.5115 45.0284 39.6181L42.2468 33.5221Z" fill="#78C2A4"/>
<path d="M39.3327 31.4585C39.0913 31.8037 39.0497 32.2508 39.2247 32.6344L42.2176 39.1933C43.1708 39.3732 44.1204 39.5112 45.0283 39.6177L42.2468 33.5219L42.2841 33.5255L39.3327 31.4585Z" fill="#95D6A4"/>
<path d="M32.1722 26.4438C31.9378 26.7878 31.8986 27.2293 32.0722 27.6088L36.5686 37.4367C37.5265 37.9142 38.6029 38.3012 39.7267 38.616L35.0961 28.4954L35.1025 28.496L32.1722 26.4438Z" fill="#95D6A4"/>
<path d="M21.2233 27.4877C20.5658 27.4877 20.0329 26.9547 20.0329 26.2972V20.9305C20.0329 19.4857 20.6307 18.0833 21.673 17.0829L23.6935 15.0971C24.1624 14.6363 24.9161 14.6429 25.3771 15.1118C25.8379 15.5807 25.8313 16.3344 25.3624 16.7952L23.3319 18.7907C22.7449 19.3543 22.414 20.1307 22.414 20.9303V26.2971C22.4138 26.9547 21.8808 27.4877 21.2233 27.4877Z" fill="#78C2A4"/>
<path d="M52.3207 64.9316H54.7017V49.5028H54.3493V54.5067C54.3493 56.1525 53.5509 57.6112 52.3207 58.5184V64.9316Z" fill="#BEB9DD"/>
<path d="M41.2096 59.4889H43.5905V64.9317H41.2096V59.4889Z" fill="#BEB9DD"/>
<path d="M35.654 59.4889H38.035V64.9317H35.654V59.4889Z" fill="#BEB9DD"/>
</svg>
