<svg width="60" height="60" viewBox="0 0 60 60" fill="none" xmlns="http://www.w3.org/2000/svg">
<path d="M40.3711 11.25H37.5586V15H38.4961C38.9934 15 39.4703 15.1975 39.8219 15.5492C40.1736 15.9008 40.3711 16.3777 40.3711 16.875V27.1875C40.3711 28.6793 40.9637 30.1101 42.0186 31.165C43.0735 32.2199 44.5043 32.8125 45.9961 32.8125V16.875C45.9961 15.3832 45.4035 13.9524 44.3486 12.8975C43.2937 11.8426 41.8629 11.25 40.3711 11.25Z" fill="#7A432A"/>
<path d="M44.0625 58.125V52.5C45.1677 51.1881 45.7738 49.5279 45.7738 47.8125C45.7738 46.0971 45.1677 44.4369 44.0625 43.125L45 41.25L49.8325 45.2522C50.5518 45.7895 51.4535 46.0229 52.3432 45.902C53.2329 45.7811 54.0396 45.3156 54.5895 44.6058C55.1395 43.896 55.3886 42.9986 55.2834 42.1069C55.1782 41.2152 54.727 40.4004 54.027 39.8381L48.5162 34.4249C47.4644 33.3916 46.0489 32.8125 44.5744 32.8125H38.4375V25.3125H30.9375V32.8125H24.8006C23.3264 32.8126 21.9111 33.3915 20.8594 34.4246L15.348 39.8379C14.648 40.4002 14.1968 41.215 14.0916 42.1067C13.9864 42.9984 14.2356 43.8958 14.7855 44.6056C15.3354 45.3154 16.1421 45.7809 17.0318 45.9018C17.9215 46.0226 18.8232 45.7893 19.5425 45.252L24.375 41.25L25.3125 43.125C23.0689 45.788 22.9124 49.7394 25.2319 52.5H25.3125V58.125" fill="#FEC093"/>
<path d="M38.4375 29.1125V25.3125H30.9375V29.1125C32.1014 29.6961 33.3855 29.9999 34.6875 29.9999C35.9895 29.9999 37.2736 29.6961 38.4375 29.1125Z" fill="#FEB784"/>
<path d="M44.0625 52.5V58.125H25.3124V52.5H25.2316C22.9124 49.7391 23.0683 45.7875 25.3124 43.125L27.1874 32.8125H29.9999V38.4375C29.9999 39.6807 30.4938 40.873 31.3729 41.7521C32.252 42.6311 33.4442 43.125 34.6874 43.125C35.9307 43.125 37.1229 42.6311 38.002 41.7521C38.8811 40.873 39.375 39.6807 39.375 38.4375V32.8125H42.1875L44.0625 43.125C45.1678 44.4368 45.774 46.0971 45.774 47.8125C45.774 49.5279 45.1678 51.1882 44.0625 52.5Z" fill="#7A432A"/>
<path d="M43.125 13.125V19.6875C43.1251 21.8021 42.3311 23.8396 40.9002 25.3966C39.4693 26.9536 37.5059 27.9164 35.3988 28.0945C35.1645 28.1145 34.9266 28.125 34.6875 28.125C32.4498 28.1248 30.3038 27.2358 28.7215 25.6535C27.1392 24.0712 26.2502 21.9252 26.25 19.6875V13.125C26.25 11.1359 27.0402 9.22822 28.4467 7.8217C29.8532 6.41518 31.7609 5.625 33.75 5.625H35.625C37.6141 5.625 39.5218 6.41518 40.9283 7.8217C42.3348 9.22822 43.125 11.1359 43.125 13.125Z" fill="#FEC9A3"/>
<path d="M43.125 13.125V19.6875C43.1251 21.8021 42.331 23.8396 40.9002 25.3966C39.4693 26.9536 37.5059 27.9164 35.3988 28.0945C36.3963 27.3057 37.2021 26.3011 37.7555 25.1561C38.309 24.0112 38.5959 22.7557 38.5945 21.484V12.109C38.5959 11.0008 38.3783 9.90319 37.9541 8.87934C37.53 7.85549 36.9077 6.92556 36.123 6.14297C35.9411 5.96172 35.7519 5.78906 35.5554 5.625H35.625C37.6141 5.625 39.5218 6.41518 40.9283 7.8217C42.3348 9.22822 43.125 11.1359 43.125 13.125Z" fill="#FEC093"/>
<path d="M33.75 2.8125C31.2636 2.8125 28.879 3.80022 27.1209 5.55837C25.3627 7.31653 24.375 9.7011 24.375 12.1875V15C30 15 39.375 7.5 39.375 7.5V7.54688C39.393 8.9924 39.7401 10.4148 40.3899 11.7062C41.0396 12.9976 41.975 14.124 43.125 15L45 15.9375V12.1875C45 10.9564 44.7575 9.73727 44.2864 8.59984C43.8152 7.46242 43.1247 6.42892 42.2541 5.55837C41.3836 4.68782 40.3501 3.99727 39.2127 3.52613C38.0752 3.05499 36.8561 2.8125 35.625 2.8125H33.75Z" fill="#7A432A"/>
<path d="M34.6875 23.4375C33.9418 23.4367 33.227 23.1401 32.6997 22.6128C32.1724 22.0855 31.8758 21.3707 31.875 20.625H33.75C33.75 20.8736 33.8488 21.1121 34.0246 21.2879C34.2004 21.4637 34.4389 21.5625 34.6875 21.5625C34.9361 21.5625 35.1746 21.4637 35.3504 21.2879C35.5262 21.1121 35.625 20.8736 35.625 20.625H37.5C37.4992 21.3707 37.2026 22.0856 36.6753 22.6128C36.1481 23.1401 35.4332 23.4367 34.6875 23.4375Z" fill="#F7A468"/>
<path d="M38.9644 17.8125C39.7411 17.8125 40.3707 17.1829 40.3707 16.4062C40.3707 15.6296 39.7411 15 38.9644 15C38.1878 15 37.5582 15.6296 37.5582 16.4062C37.5582 17.1829 38.1878 17.8125 38.9644 17.8125Z" fill="#7A432A"/>
<path d="M30.5269 17.8125C31.3036 17.8125 31.9332 17.1829 31.9332 16.4062C31.9332 15.6296 31.3036 15 30.5269 15C29.7503 15 29.1207 15.6296 29.1207 16.4062C29.1207 17.1829 29.7503 17.8125 30.5269 17.8125Z" fill="#7A432A"/>
<path d="M46.8749 14.0625H43.1249C43.1282 12.1633 42.4078 10.3342 41.1104 8.94728C40.6803 8.4869 40.1945 8.08184 39.6643 7.74142C38.4587 6.96935 37.0565 6.56013 35.6249 6.56251H33.7499C32.3191 6.56027 30.9179 6.96906 29.7128 7.74025C29.2556 8.03337 28.8313 8.37479 28.4472 8.75861C28.3862 8.81954 28.3253 8.88283 28.2667 8.94611C26.9681 10.333 26.2469 12.1626 26.2499 14.0625H22.4999C22.4956 11.1676 23.6119 8.38328 25.6147 6.29298C26.0475 5.83966 26.517 5.423 27.0186 5.04728H27.0198C28.9619 3.593 31.3237 2.80874 33.7499 2.81251H35.6249C38.6086 2.81251 41.47 3.99778 43.5798 6.10756C45.6896 8.21735 46.8749 11.0788 46.8749 14.0625Z" fill="#EC8C8C"/>
<path d="M26.25 15V14.0625H22.5C22.0027 14.0625 21.5258 14.26 21.1742 14.6117C20.8225 14.9633 20.625 15.4402 20.625 15.9375V20.625C20.625 21.1223 20.8225 21.5992 21.1742 21.9508C21.5258 22.3025 22.0027 22.5 22.5 22.5H26.7404C26.4177 21.5973 26.2518 20.6461 26.25 19.6875V15Z" fill="#F59898"/>
<path d="M46.8751 14.0625H43.1251V19.6875C43.1232 20.6461 42.9574 21.5973 42.6346 22.5H46.8751C47.3724 22.5 47.8493 22.3025 48.2009 21.9508C48.5525 21.5992 48.7501 21.1223 48.7501 20.625V15.9375C48.7501 15.4402 48.5525 14.9633 48.2009 14.6117C47.8493 14.26 47.3724 14.0625 46.8751 14.0625Z" fill="#F59898"/>
<path d="M46.9337 19.6875H43.1251C43.1232 20.6461 42.9574 21.5974 42.6346 22.5H46.8751C47.3724 22.5 47.8493 22.3025 48.2009 21.9508C48.5525 21.5992 48.7501 21.1223 48.7501 20.625V18.2551C48.6516 18.6629 48.419 19.0257 48.0896 19.2855C47.7602 19.5452 47.3531 19.6868 46.9337 19.6875Z" fill="#EC8C8C"/>
<path d="M22.4414 19.6875H26.25C26.2518 20.6461 26.4177 21.5974 26.7404 22.5H22.5C22.0027 22.5 21.5258 22.3025 21.1742 21.9508C20.8225 21.5992 20.625 21.1223 20.625 20.625V18.2551C20.7235 18.6629 20.9561 19.0257 21.2855 19.2855C21.6148 19.5452 22.0219 19.6868 22.4414 19.6875Z" fill="#EC8C8C"/>
<path d="M29.7126 7.74033C29.2555 8.03346 28.8312 8.37487 28.447 8.75869C28.386 8.81963 28.3251 8.88291 28.2665 8.94619L25.6146 6.29307C26.0473 5.83975 26.5169 5.42308 27.0185 5.04736H27.0196L29.7126 7.74033Z" fill="#E07F7F"/>
<path d="M43.7762 6.30945L41.1102 8.94734C40.68 8.48696 40.1942 8.08189 39.6641 7.74148L42.3734 5.0614C42.875 5.43761 43.3442 5.85508 43.7762 6.30945Z" fill="#E07F7F"/>
<path d="M50.625 25.3125L51.5625 16.875L48.6434 12.036C48.3623 11.6435 47.9413 11.3739 47.4673 11.2829C46.9932 11.1918 46.5023 11.2862 46.0959 11.5466C45.7268 11.7752 45.4575 12.1347 45.3418 12.5532C45.2261 12.9717 45.2725 13.4184 45.4717 13.8042L47.6244 17.7993L46.6315 20.5533C46.1724 21.8264 45.9376 23.1695 45.9375 24.5229C45.9375 25.0299 45.9705 25.5365 46.0362 26.0393L48.2296 42.8205C48.2957 43.3214 48.4669 43.8026 48.732 44.2327C48.9971 44.6627 49.3501 45.0319 49.7679 45.3159C50.1857 45.6 50.6588 45.7925 51.1562 45.8809C51.6536 45.9693 52.1641 45.9516 52.6541 45.8288C53.1203 45.7132 53.5583 45.5048 53.9422 45.2162C54.3261 44.9276 54.6479 44.5646 54.8885 44.149C55.1291 43.7333 55.2835 43.2735 55.3426 42.7968C55.4016 42.3202 55.3641 41.8366 55.2323 41.3748L50.625 25.3125Z" fill="#FEC9A3"/>
<path d="M18.8085 25.3126L17.871 16.8751L20.7902 12.0361C21.0712 11.6436 21.4922 11.374 21.9662 11.283C22.4402 11.1919 22.9311 11.2863 23.3376 11.5467C23.7067 11.7753 23.9761 12.1348 24.0918 12.5533C24.2075 12.9718 24.161 13.4185 23.9617 13.8043L21.8085 17.7995L22.8015 20.5534C23.2606 21.8266 23.4954 23.1699 23.4954 24.5234C23.4954 25.0305 23.4624 25.5371 23.3967 26.0399L21.2034 42.8211C21.1373 43.322 20.9661 43.8032 20.701 44.2332C20.4359 44.6633 20.0828 45.0324 19.6651 45.3165C19.2473 45.6005 18.7742 45.7931 18.2768 45.8815C17.7794 45.9699 17.2689 45.9521 16.7788 45.8294C16.3127 45.7137 15.8746 45.5054 15.4908 45.2168C15.1069 44.9282 14.7851 44.5652 14.5445 44.1496C14.3039 43.7339 14.1494 43.2741 14.0904 42.7974C14.0313 42.3208 14.0689 41.8372 14.2007 41.3754L18.8085 25.3126Z" fill="#FEC9A3"/>
<path d="M15.0453 22.6542C15.0677 22.5199 15.0606 22.3824 15.0245 22.2512C14.9884 22.1199 14.9241 21.9981 14.8361 21.8942C14.7482 21.7903 14.6387 21.7069 14.5152 21.6496C14.3917 21.5923 14.2572 21.5626 14.1211 21.5625H8.49609C8.27419 21.5625 8.05948 21.6412 7.89015 21.7846C7.72083 21.9281 7.60787 22.1269 7.57137 22.3458L6.9157 26.2798C6.54386 26.2191 6.16236 26.2721 5.82109 26.4317C5.47981 26.5913 5.19463 26.8502 5.00282 27.1744C4.81101 27.4987 4.72149 27.8733 4.74596 28.2493C4.77043 28.6252 4.90776 28.9851 5.14 29.2817C5.37223 29.5784 5.68857 29.7981 6.04766 29.9122C6.40674 30.0262 6.79188 30.0292 7.15273 29.9209C7.51357 29.8125 7.83333 29.5978 8.07022 29.3049C8.30711 29.0119 8.4501 28.6543 8.48051 28.2787H8.4832L9.28992 23.4375H13.0138L12.5402 26.2798C12.1684 26.2191 11.7869 26.2721 11.4456 26.4317C11.1044 26.5914 10.8192 26.8503 10.6274 27.1745C10.4356 27.4988 10.3461 27.8734 10.3706 28.2494C10.3951 28.6253 10.5324 28.9852 10.7647 29.2818C10.9969 29.5785 11.3133 29.7982 11.6724 29.9122C12.0314 30.0262 12.4166 30.0292 12.7774 29.9209C13.1382 29.8125 13.458 29.5978 13.6949 29.3049C13.9318 29.0119 14.0747 28.6543 14.1052 28.2787H14.1078L15.0453 22.6542Z" fill="#EC8C8C"/>
<path d="M44.0624 52.4999V58.1249H30.1534C35.5136 55.3862 40.9687 51.0385 44.7761 44.135C45.5357 45.4323 45.8749 46.9329 45.7471 48.4307C45.6193 49.9285 45.0308 51.35 44.0624 52.4999Z" fill="#6E3C24"/>
<path d="M15.9375 34.6875H6.5625C5.52697 34.6875 4.6875 35.527 4.6875 36.5625V55.3125C4.6875 56.348 5.52697 57.1875 6.5625 57.1875H15.9375C16.973 57.1875 17.8125 56.348 17.8125 55.3125V36.5625C17.8125 35.527 16.973 34.6875 15.9375 34.6875Z" fill="#E0E0DE"/>
<path d="M4.6875 38.4375H17.8125V53.4375H4.6875V38.4375Z" fill="#EC8C8C"/>
<path d="M15.9375 34.6875H14.4332L13.1836 38.4375H17.8125V36.5625C17.8125 36.0652 17.615 35.5883 17.2633 35.2367C16.9117 34.885 16.4348 34.6875 15.9375 34.6875Z" fill="#D6D6D4"/>
<path d="M6.93311 57.1875H15.9374C16.4347 57.1875 16.9116 56.99 17.2633 56.6383C17.6149 56.2867 17.8124 55.8098 17.8124 55.3125V53.4375H8.18315L6.93311 57.1875Z" fill="#D6D6D4"/>
<path d="M8.18311 53.4375H17.8124V38.4375H13.1831L8.18311 53.4375Z" fill="#E07F7F"/>
<path d="M9.375 43.125V48.75L14.0625 45.9375L9.375 43.125Z" fill="#FEB2B2"/>
</svg>
