<svg width="60" height="60" viewBox="0 0 60 60" fill="none" xmlns="http://www.w3.org/2000/svg">
<path d="M27.1875 28.125V51.5625C27.1875 52.5571 26.7924 53.5109 26.0892 54.2142C25.3859 54.9174 24.4321 55.3125 23.4375 55.3125H7.5C7.00744 55.3129 6.51964 55.2161 6.0645 55.0278C5.60936 54.8395 5.19582 54.5633 4.84753 54.215C4.49923 53.8667 4.22302 53.4531 4.0347 52.998C3.84638 52.5429 3.74963 52.0551 3.75 51.5625V28.125C3.75 27.1304 4.14509 26.1766 4.84835 25.4734C5.55161 24.7701 6.50544 24.375 7.5 24.375H23.4375C24.1008 24.3738 24.7525 24.5493 25.3254 24.8836C25.8108 25.1676 26.2268 25.5564 26.543 26.0215C26.9643 26.642 27.1889 27.375 27.1875 28.125Z" fill="#D6D6D4"/>
<path d="M27.1876 28.1251V51.5626C27.1876 52.5571 26.7925 53.511 26.0892 54.2142C25.386 54.9175 24.4321 55.3126 23.4376 55.3126H7.50006C6.7463 55.3116 6.01025 55.084 5.38749 54.6594C4.76474 54.2347 4.28405 53.6327 4.00787 52.9313C11.3133 46.9126 19.2985 37.9524 25.3255 24.8837C25.8109 25.1677 26.2268 25.5564 26.543 26.0216C26.9644 26.642 27.189 27.3751 27.1876 28.1251Z" fill="#C7C7C5"/>
<path d="M9.375 29.0625C9.375 28.5447 8.95527 28.125 8.4375 28.125C7.91973 28.125 7.5 28.5447 7.5 29.0625V50.625C7.5 51.1428 7.91973 51.5625 8.4375 51.5625C8.95527 51.5625 9.375 51.1428 9.375 50.625V29.0625Z" fill="#BFBFBD"/>
<path d="M14.0625 29.0625C14.0625 28.5447 13.6428 28.125 13.125 28.125C12.6072 28.125 12.1875 28.5447 12.1875 29.0625V50.625C12.1875 51.1428 12.6072 51.5625 13.125 51.5625C13.6428 51.5625 14.0625 51.1428 14.0625 50.625V29.0625Z" fill="#BFBFBD"/>
<path d="M18.75 29.0625C18.75 28.5447 18.3303 28.125 17.8125 28.125C17.2947 28.125 16.875 28.5447 16.875 29.0625V50.625C16.875 51.1428 17.2947 51.5625 17.8125 51.5625C18.3303 51.5625 18.75 51.1428 18.75 50.625V29.0625Z" fill="#BFBFBD"/>
<path d="M23.4375 29.0625C23.4375 28.5447 23.0178 28.125 22.5 28.125C21.9822 28.125 21.5625 28.5447 21.5625 29.0625V50.625C21.5625 51.1428 21.9822 51.5625 22.5 51.5625C23.0178 51.5625 23.4375 51.1428 23.4375 50.625V29.0625Z" fill="#BFBFBD"/>
<path d="M10.3125 58.125C12.3836 58.125 14.0625 56.4461 14.0625 54.375C14.0625 52.3039 12.3836 50.625 10.3125 50.625C8.24143 50.625 6.5625 52.3039 6.5625 54.375C6.5625 56.4461 8.24143 58.125 10.3125 58.125Z" fill="#44546C"/>
<path d="M21.5625 58.125C21.0652 58.125 20.5883 57.9275 20.2367 57.5758C19.885 57.2242 19.6875 56.7473 19.6875 56.25V55.3125H23.4375V56.25C23.4375 56.7473 23.24 57.2242 22.8883 57.5758C22.5367 57.9275 22.0598 58.125 21.5625 58.125Z" fill="#44546C"/>
<path d="M18.75 3.75H11.25C10.2145 3.75 9.375 4.58947 9.375 5.625C9.375 6.66053 10.2145 7.5 11.25 7.5H18.75C19.7855 7.5 20.625 6.66053 20.625 5.625C20.625 4.58947 19.7855 3.75 18.75 3.75Z" fill="#E0E0DE"/>
<path d="M11.25 7.5H13.125V24.375H11.25V7.5Z" fill="#C7C7C5"/>
<path d="M16.875 7.5H18.75V24.375H16.875V7.5Z" fill="#C7C7C5"/>
<path d="M11.25 7.5H13.125V9.375H11.25V7.5Z" fill="#BFBFBD"/>
<path d="M16.875 7.5H18.75V9.375H16.875V7.5Z" fill="#BFBFBD"/>
<path d="M46.875 18.9281V14.0625H40.3125V37.5H46.875L47.841 35.246C48.5134 33.6775 48.6736 31.9368 48.2987 30.2719C47.4591 26.5393 46.875 22.7539 46.875 18.9281Z" fill="#8F4D2E"/>
<path d="M26.25 27.1875C25.3951 28.3274 24.8556 29.6724 24.686 31.0872C24.5165 32.5019 24.7227 33.9364 25.284 35.246L26.25 37.5H32.8125V25.3125L30.9375 21.5625L26.25 27.1875Z" fill="#8F4D2E"/>
<path d="M45.9375 35.625H40.3125V28.125H32.8125V35.625H27.1875C25.9443 35.625 24.752 36.1189 23.8729 36.9979C22.9939 37.877 22.5 39.0693 22.5 40.3125V58.125H50.625V40.3125C50.625 39.0693 50.1311 37.877 49.2521 36.9979C48.373 36.1189 47.1807 35.625 45.9375 35.625Z" fill="#FEC9A3"/>
<path d="M40.3125 31.925V28.125H32.8125V31.925C33.9764 32.5086 35.2605 32.8124 36.5625 32.8124C37.8645 32.8124 39.1486 32.5086 40.3125 31.925Z" fill="#FEB784"/>
<path d="M45 15.9375V22.5C45 24.7378 44.1111 26.8839 42.5287 28.4662C40.9464 30.0486 38.8003 30.9375 36.5625 30.9375C34.3247 30.9375 32.1786 30.0486 30.5963 28.4662C29.0139 26.8839 28.125 24.7378 28.125 22.5V15.9375C28.125 13.9484 28.9152 12.0407 30.3217 10.6342C31.7282 9.22768 33.6359 8.4375 35.625 8.4375H37.5C38.4851 8.43682 39.4607 8.63035 40.3709 9.00702C41.2812 9.38369 42.1082 9.93612 42.8048 10.6327C43.5014 11.3293 44.0538 12.1563 44.4305 13.0666C44.8072 13.9768 45.0007 14.9524 45 15.9375Z" fill="#FEC9A3"/>
<path d="M36.5625 26.25C35.8168 26.2492 35.102 25.9526 34.5747 25.4253C34.0474 24.898 33.7508 24.1832 33.75 23.4375H35.625C35.625 23.6861 35.7238 23.9246 35.8996 24.1004C36.0754 24.2762 36.3139 24.375 36.5625 24.375C36.8111 24.375 37.0496 24.2762 37.2254 24.1004C37.4012 23.9246 37.5 23.6861 37.5 23.4375H39.375C39.3742 24.1832 39.0776 24.8981 38.5503 25.4253C38.0231 25.9526 37.3082 26.2492 36.5625 26.25Z" fill="#F7A468"/>
<path d="M28.125 18.75H43.125V21.5625H28.125V18.75Z" fill="#FEC093"/>
<path d="M45 15.9375V22.5C44.9992 23.7599 44.7163 25.0036 44.1723 26.14C43.6282 27.2764 42.8367 28.2767 41.8558 29.0674C40.875 29.8582 39.7296 30.4194 38.5036 30.7099C37.2776 31.0004 36.0022 31.0129 34.7708 30.7464C36.5439 30.2495 38.1058 29.1863 39.2185 27.7191C40.3312 26.2518 40.9335 24.4609 40.9336 22.6195V13.2445C40.9361 11.6526 40.4862 10.0929 39.6364 8.74683C41.1858 9.20747 42.545 10.1563 43.5115 11.452C44.478 12.7477 45.0001 14.321 45 15.9375Z" fill="#FEC093"/>
<path d="M35.625 5.625C33.1386 5.625 30.754 6.61272 28.9959 8.37087C27.2377 10.129 26.25 12.5136 26.25 15V27.1875L29.2196 23.6239C30.3297 22.2919 30.9376 20.6128 30.9375 18.8789C30.9375 17.4452 31.3533 16.0423 32.1345 14.8402C32.9157 13.6381 34.0288 12.6883 35.3389 12.1061L39.375 10.3125L39.6929 11.1073C40.696 13.6149 42.5844 15.6672 45 16.875H46.875V15C46.875 12.5136 45.8873 10.129 44.1291 8.37087C42.371 6.61272 39.9864 5.625 37.5 5.625H35.625Z" fill="#95573A"/>
<path d="M45 16.875H45.9375C46.6834 16.875 47.3988 17.1713 47.9262 17.6988C48.4537 18.2262 48.75 18.9416 48.75 19.6875C48.75 20.4334 48.4537 21.1488 47.9262 21.6762C47.3988 22.2037 46.6834 22.5 45.9375 22.5H45V16.875Z" fill="#FEB784"/>
<path d="M50.625 58.125V40.3125C50.625 39.0693 50.1311 37.877 49.2521 36.9979C48.373 36.1189 47.1807 35.625 45.9375 35.625L45.3077 36.5698C44.3479 38.0095 43.0475 39.1899 41.5219 40.0064C39.9963 40.8228 38.2928 41.25 36.5625 41.25C34.8322 41.25 33.1287 40.8228 31.6031 40.0064C30.0775 39.1899 28.7771 38.0095 27.8173 36.5698L27.1875 35.625C25.9443 35.625 24.752 36.1189 23.8729 36.9979C22.9939 37.877 22.5 39.0693 22.5 40.3125V58.125" fill="#E0E0DE"/>
<path d="M50.625 40.3125V58.125H22.5V40.3125C22.5 39.0693 22.9939 37.877 23.8729 36.9979C24.752 36.1189 25.9443 35.625 27.1875 35.625H30.9375L36.5625 50.625L42.1875 35.625H45.9375C46.5532 35.6247 47.1629 35.7457 47.7317 35.9811C48.3006 36.2166 48.8175 36.5618 49.2528 36.9972C49.6882 37.4325 50.0334 37.9494 50.2689 38.5183C50.5043 39.0871 50.6253 39.6968 50.625 40.3125Z" fill="#348FD9"/>
<path d="M50.625 40.3124V58.1249H29.9765C37.5316 53.694 45.3609 47.2136 50.0191 38.0073C50.4173 38.7102 50.626 39.5045 50.625 40.3124Z" fill="#3086CD"/>
<path d="M40.3125 6.05544C39.7023 5.86373 39.074 5.73532 38.4375 5.67224V10.7291L39.375 10.3124L39.6929 11.1072C39.843 11.4762 40.0129 11.8368 40.202 12.1874H40.3125V6.05544Z" fill="#82462A"/>
<path d="M31.875 51.5625H33.75V53.4375H31.875V51.5625Z" fill="#2A71AD"/>
<path d="M46.745 46.3981L45.13 47.352C46.447 49.5823 46.1064 52.5394 44.2822 54.7092C44.1404 54.8783 44.0626 55.0919 44.0625 55.3125V58.125H45.9375V55.6439C48.0771 52.8919 48.4102 49.2188 46.745 46.3981Z" fill="#2A71AD"/>
<path d="M27.9951 47.352L26.38 46.3981C24.7149 49.2188 25.048 52.8919 27.1876 55.6439V58.125H29.0626V55.3125C29.0625 55.0919 28.9847 54.8783 28.8429 54.7092C27.0187 52.5394 26.6781 49.5821 27.9951 47.352Z" fill="#2A71AD"/>
<path d="M35.625 49.6875H37.5V58.125H35.625V49.6875Z" fill="#2A71AD"/>
<path d="M51.5625 10.3125H21.5625C18.9737 10.3125 16.875 12.4112 16.875 15C16.875 17.5888 18.9737 19.6875 21.5625 19.6875H51.5625C54.1513 19.6875 56.25 17.5888 56.25 15C56.25 12.4112 54.1513 10.3125 51.5625 10.3125Z" fill="#FFA912"/>
<path d="M46.8749 13.125V15H26.2499V13.125C26.2469 10.4451 27.2884 7.86956 29.1535 5.94517C31.0186 4.02079 33.5603 2.89914 36.239 2.81837C36.3468 2.81368 36.4546 2.81251 36.5624 2.81251C37.9171 2.81096 39.2588 3.07665 40.5107 3.59436C41.7626 4.11206 42.9 4.87162 43.8579 5.82953C44.8158 6.78744 45.5754 7.92489 46.0931 9.17676C46.6108 10.4286 46.8765 11.7703 46.8749 13.125Z" fill="#FFB531"/>
<path d="M46.875 13.125V15H41.9684C40.5188 8.83945 38.816 5.25352 36.2391 2.81836C36.3469 2.81367 36.4547 2.8125 36.5625 2.8125C37.9168 2.8125 39.2578 3.07924 40.5089 3.59749C41.7601 4.11574 42.8969 4.87536 43.8546 5.83296C44.8122 6.79057 45.5718 7.92741 46.09 9.17858C46.6083 10.4297 46.875 11.7707 46.875 13.125Z" fill="#FFA912"/>
<path d="M46.875 13.125V15H26.25V13.125C26.2499 12.4962 26.3068 11.8686 26.4199 11.25H46.7051C46.8182 11.8686 46.8751 12.4962 46.875 13.125Z" fill="#F98500"/>
<path d="M46.8749 13.125V15H41.2499C40.9991 13.5926 40.7437 12.3516 40.473 11.25H46.705C46.8182 11.8686 46.875 12.4962 46.8749 13.125Z" fill="#E67007"/>
</svg>
